<svg xmlns="http://www.w3.org/2000/svg">
  <symbol
    id="icon-apps"
    viewBox="0 0 24 24"
    fill="none"
    stroke="currentColor"
    stroke-width="1.8"
  >
    <rect x="3" y="3" width="7" height="7" rx="1.5" />
    <rect x="14" y="3" width="7" height="7" rx="1.5" />
    <rect x="3" y="14" width="7" height="7" rx="1.5" />
    <rect x="14" y="14" width="7" height="7" rx="1.5" />
  </symbol>
  <symbol
    id="icon-cpu"
    viewBox="0 0 24 24"
    fill="none"
    stroke="currentColor"
    stroke-width="1.8"
  >
    <rect x="6" y="6" width="12" height="12" rx="1.5" />
    <rect x="9" y="9" width="6" height="6" rx="1" />
    <path d="M9 3v2M15 3v2M9 19v2M15 19v2M3 9h2M3 15h2M19 9h2M19 15h2" />
  </symbol>
  <symbol
    id="icon-music"
    viewBox="0 0 24 24"
    fill="none"
    stroke="currentColor"
    stroke-width="1.8"
  >
    <path d="M9 18V5l11-2v13" />
    <circle cx="6" cy="18" r="3" />
    <circle cx="17" cy="16" r="3" />
  </symbol>
  <symbol
    id="icon-terminal"
    viewBox="0 0 24 24"
    fill="none"
    stroke="currentColor"
    stroke-width="1.8"
  >
    <rect x="3" y="4" width="18" height="16" rx="2" />
    <path d="M7 9l4 3-4 3M13 15h4" />
  </symbol>
  <symbol
    id="icon-bug"
    viewBox="0 0 24 24"
    fill="none"
    stroke="currentColor"
    stroke-width="1.8"
  >
    <rect x="8" y="7" width="8" height="11" rx="4" />
    <path d="M12 7V3M9 8 5 5M15 8l4-3M4 12h4M16 12h4M9 18l-3 3M15 18l3 3" />
  </symbol>
  <symbol
    id="icon-code"
    viewBox="0 0 24 24"
    fill="none"
    stroke="currentColor"
    stroke-width="1.8"
  >
    <path d="M8 6 2 12l6 6M16 6l6 6-6 6" />
  </symbol>
  <symbol
    id="icon-mail"
    viewBox="0 0 24 24"
    fill="none"
    stroke="currentColor"
    stroke-width="1.8"
  >
    <rect x="3" y="5" width="18" height="14" rx="2" />
    <path d="M3 7l9 6 9-6" />
  </symbol>
  <symbol
    id="icon-user"
    viewBox="0 0 24 24"
    fill="none"
    stroke="currentColor"
    stroke-width="1.8"
  >
    <circle cx="12" cy="8" r="4" />
    <path d="M4 20c0-4 3.5-6 8-6s8 2 8 6" />
  </symbol>
</svg>
